<svg width="24" height="24" viewBox="0 0 24 24" fill="none" xmlns="http://www.w3.org/2000/svg">
<g opacity="0.24" clip-path="url(#clip0_17_114)">
<g filter="url(#filter0_d_17_114)">
<path d="M19 8.00105H15V4.99905C15.0033 4.607 14.9276 4.2183 14.7775 3.85613C14.6273 3.49397 14.4057 3.16575 14.126 2.89105C13.8189 2.57491 13.4447 2.3318 13.031 2.17966C12.6173 2.02752 12.1748 1.97024 11.736 2.01205C10.202 2.14405 9 3.50805 9 5.11705V8.00005H5C3.897 8.00005 3 8.89705 3 10V20C3 21.103 3.897 22 5 22H19C20.103 22 21 21.103 21 20V10.001C21 8.89805 20.103 8.00105 19 8.00105ZM5 10H11V5.11705C11 4.54705 11.407 4.04705 12.002 4.00005C12.268 4.00005 12.514 4.10305 12.714 4.30705C12.8058 4.39721 12.8784 4.50497 12.9276 4.62388C12.9767 4.74279 13.0013 4.87039 13 4.99905V10H13.995L14 10.001H19V12H5V10ZM5 20V14H19L19.002 20H5Z" fill="white"/>
</g>
</g>
<defs>
<filter id="filter0_d_17_114" x="-1" y="1.99878" width="26" height="28.0012" filterUnits="userSpaceOnUse" color-interpolation-filters="sRGB">
<feFlood flood-opacity="0" result="BackgroundImageFix"/>
<feColorMatrix in="SourceAlpha" type="matrix" values="0 0 0 0 0 0 0 0 0 0 0 0 0 0 0 0 0 0 127 0" result="hardAlpha"/>
<feOffset dy="4"/>
<feGaussianBlur stdDeviation="2"/>
<feComposite in2="hardAlpha" operator="out"/>
<feColorMatrix type="matrix" values="0 0 0 0 0 0 0 0 0 0 0 0 0 0 0 0 0 0 0.25 0"/>
<feBlend mode="normal" in2="BackgroundImageFix" result="effect1_dropShadow_17_114"/>
<feBlend mode="normal" in="SourceGraphic" in2="effect1_dropShadow_17_114" result="shape"/>
</filter>
<clipPath id="clip0_17_114">
<rect width="24" height="24" fill="white"/>
</clipPath>
</defs>
</svg>
