<svg width="52" height="52" viewBox="0 0 52 52" fill="none" xmlns="http://www.w3.org/2000/svg">
<circle cx="26" cy="26" r="25" stroke="#5555FC" stroke-width="2"/>
<path d="M28 21C28.5304 21 29.0391 20.7893 29.4142 20.4142C29.7893 20.0391 30 19.5304 30 19C30 18.4696 29.7893 17.9609 29.4142 17.5858C29.0391 17.2107 28.5304 17 28 17C27.4696 17 26.9609 17.2107 26.5858 17.5858C26.2107 17.9609 26 18.4696 26 19C26 19.5304 26.2107 20.0391 26.5858 20.4142C26.9609 20.7893 27.4696 21 28 21ZM29 28H31C31.7956 28 32.5587 28.3161 33.1213 28.8787C33.6839 29.4413 34 30.2044 34 31V35H18V31C18 30.2044 18.3161 29.4413 18.8787 28.8787C19.4413 28.3161 20.2044 28 21 28H27V22.874C26.0595 22.6283 25.2406 22.0486 24.6962 21.2433C24.1518 20.438 23.9191 19.4621 24.0416 18.4978C24.164 17.5335 24.6333 16.6467 25.3617 16.003C26.0901 15.3594 27.0279 15.0028 28 15C28.9743 14.999 29.9154 15.3537 30.6467 15.9974C31.3781 16.6411 31.8493 17.5295 31.9721 18.496C32.0948 19.4625 31.8606 20.4406 31.3134 21.2467C30.7662 22.0528 29.9436 22.6314 29 22.874V28ZM20 33H32V31C32 30.7348 31.8946 30.4804 31.7071 30.2929C31.5196 30.1054 31.2652 30 31 30H21C20.7348 30 20.4804 30.1054 20.2929 30.2929C20.1054 30.4804 20 30.7348 20 31V33ZM22.5 27H24.5C24.8978 27 25.2794 27.158 25.5607 27.4393C25.842 27.7206 26 28.1022 26 28.5C26 28.8978 25.842 29.2794 25.5607 29.5607C25.2794 29.842 24.8978 30 24.5 30H22.5C22.1022 30 21.7206 29.842 21.4393 29.5607C21.158 29.2794 21 28.8978 21 28.5C21 28.1022 21.158 27.7206 21.4393 27.4393C21.7206 27.158 22.1022 27 22.5 27Z" fill="#5555FC"/>
</svg>
