<svg width="53" height="54" viewBox="0 0 53 54" fill="none" xmlns="http://www.w3.org/2000/svg">
<circle cx="26.2069" cy="26.9992" r="25.1093" stroke="#5555FC" stroke-width="2"/>
<g clip-path="url(#clip0_17_260)">
<path d="M35.125 23.1875C35.5062 23.1875 35.8719 23.339 36.1415 23.6085C36.411 23.8781 36.5625 24.2438 36.5625 24.625V31.8125C36.5625 32.1937 36.411 32.5594 36.1415 32.829C35.8719 33.0985 35.5062 33.25 35.125 33.25H17.875C17.4938 33.25 17.1281 33.0985 16.8585 32.829C16.589 32.5594 16.4375 32.1937 16.4375 31.8125V24.625C16.4375 24.2438 16.589 23.8781 16.8585 23.6085C17.1281 23.339 17.4938 23.1875 17.875 23.1875H35.125ZM17.875 21.75C17.1125 21.75 16.3812 22.0529 15.8421 22.5921C15.3029 23.1312 15 23.8625 15 24.625V31.8125C15 32.575 15.3029 33.3063 15.8421 33.8454C16.3812 34.3846 17.1125 34.6875 17.875 34.6875H35.125C35.8875 34.6875 36.6188 34.3846 37.1579 33.8454C37.6971 33.3063 38 32.575 38 31.8125V24.625C38 23.8625 37.6971 23.1312 37.1579 22.5921C36.6188 22.0529 35.8875 21.75 35.125 21.75H17.875Z" fill="#5555FC"/>
<path d="M33.6875 30.7344C33.6875 30.6391 33.7254 30.5477 33.7928 30.4803C33.8602 30.4129 33.9516 30.375 34.0469 30.375H34.7656C34.8609 30.375 34.9523 30.4129 35.0197 30.4803C35.0871 30.5477 35.125 30.6391 35.125 30.7344V31.4531C35.125 31.5484 35.0871 31.6398 35.0197 31.7072C34.9523 31.7746 34.8609 31.8125 34.7656 31.8125H34.0469C33.9516 31.8125 33.8602 31.7746 33.7928 31.7072C33.7254 31.6398 33.6875 31.5484 33.6875 31.4531V30.7344ZM33.6875 27.8594C33.6875 27.7641 33.7254 27.6727 33.7928 27.6053C33.8602 27.5379 33.9516 27.5 34.0469 27.5H34.7656C34.8609 27.5 34.9523 27.5379 35.0197 27.6053C35.0871 27.6727 35.125 27.7641 35.125 27.8594V28.5781C35.125 28.6734 35.0871 28.7648 35.0197 28.8322C34.9523 28.8996 34.8609 28.9375 34.7656 28.9375H34.0469C33.9516 28.9375 33.8602 28.8996 33.7928 28.8322C33.7254 28.7648 33.6875 28.6734 33.6875 28.5781V27.8594ZM26.5 27.8594C26.5 27.7641 26.5379 27.6727 26.6053 27.6053C26.6727 27.5379 26.7641 27.5 26.8594 27.5H27.5781C27.6734 27.5 27.7648 27.5379 27.8322 27.6053C27.8996 27.6727 27.9375 27.7641 27.9375 27.8594V28.5781C27.9375 28.6734 27.8996 28.7648 27.8322 28.8322C27.7648 28.8996 27.6734 28.9375 27.5781 28.9375H26.8594C26.7641 28.9375 26.6727 28.8996 26.6053 28.8322C26.5379 28.7648 26.5 28.6734 26.5 28.5781V27.8594ZM29.375 27.8594C29.375 27.7641 29.4129 27.6727 29.4803 27.6053C29.5477 27.5379 29.6391 27.5 29.7344 27.5H31.8906C31.9859 27.5 32.0773 27.5379 32.1447 27.6053C32.2121 27.6727 32.25 27.7641 32.25 27.8594V28.5781C32.25 28.6734 32.2121 28.7648 32.1447 28.8322C32.0773 28.8996 31.9859 28.9375 31.8906 28.9375H29.7344C29.6391 28.9375 29.5477 28.8996 29.4803 28.8322C29.4129 28.7648 29.375 28.6734 29.375 28.5781V27.8594ZM30.8125 30.7344C30.8125 30.6391 30.8504 30.5477 30.9178 30.4803C30.9852 30.4129 31.0766 30.375 31.1719 30.375H31.8906C31.9859 30.375 32.0773 30.4129 32.1447 30.4803C32.2121 30.5477 32.25 30.6391 32.25 30.7344V31.4531C32.25 31.5484 32.2121 31.6398 32.1447 31.7072C32.0773 31.7746 31.9859 31.8125 31.8906 31.8125H31.1719C31.0766 31.8125 30.9852 31.7746 30.9178 31.7072C30.8504 31.6398 30.8125 31.5484 30.8125 31.4531V30.7344ZM23.625 27.8594C23.625 27.7641 23.6629 27.6727 23.7303 27.6053C23.7977 27.5379 23.8891 27.5 23.9844 27.5H24.7031C24.7984 27.5 24.8898 27.5379 24.9572 27.6053C25.0246 27.6727 25.0625 27.7641 25.0625 27.8594V28.5781C25.0625 28.6734 25.0246 28.7648 24.9572 28.8322C24.8898 28.8996 24.7984 28.9375 24.7031 28.9375H23.9844C23.8891 28.9375 23.7977 28.8996 23.7303 28.8322C23.6629 28.7648 23.625 28.6734 23.625 28.5781V27.8594ZM20.75 27.8594C20.75 27.7641 20.7879 27.6727 20.8553 27.6053C20.9227 27.5379 21.0141 27.5 21.1094 27.5H21.8281C21.9234 27.5 22.0148 27.5379 22.0822 27.6053C22.1496 27.6727 22.1875 27.7641 22.1875 27.8594V28.5781C22.1875 28.6734 22.1496 28.7648 22.0822 28.8322C22.0148 28.8996 21.9234 28.9375 21.8281 28.9375H21.1094C21.0141 28.9375 20.9227 28.8996 20.8553 28.8322C20.7879 28.7648 20.75 28.6734 20.75 28.5781V27.8594ZM17.875 27.8594C17.875 27.7641 17.9129 27.6727 17.9803 27.6053C18.0477 27.5379 18.1391 27.5 18.2344 27.5H18.9531C19.0484 27.5 19.1398 27.5379 19.2072 27.6053C19.2746 27.6727 19.3125 27.7641 19.3125 27.8594V28.5781C19.3125 28.6734 19.2746 28.7648 19.2072 28.8322C19.1398 28.8996 19.0484 28.9375 18.9531 28.9375H18.2344C18.1391 28.9375 18.0477 28.8996 17.9803 28.8322C17.9129 28.7648 17.875 28.6734 17.875 28.5781V27.8594ZM33.6875 24.9844C33.6875 24.8891 33.7254 24.7977 33.7928 24.7303C33.8602 24.6629 33.9516 24.625 34.0469 24.625H34.7656C34.8609 24.625 34.9523 24.6629 35.0197 24.7303C35.0871 24.7977 35.125 24.8891 35.125 24.9844V25.7031C35.125 25.7984 35.0871 25.8898 35.0197 25.9572C34.9523 26.0246 34.8609 26.0625 34.7656 26.0625H34.0469C33.9516 26.0625 33.8602 26.0246 33.7928 25.9572C33.7254 25.8898 33.6875 25.7984 33.6875 25.7031V24.9844ZM30.8125 24.9844C30.8125 24.8891 30.8504 24.7977 30.9178 24.7303C30.9852 24.6629 31.0766 24.625 31.1719 24.625H31.8906C31.9859 24.625 32.0773 24.6629 32.1447 24.7303C32.2121 24.7977 32.25 24.8891 32.25 24.9844V25.7031C32.25 25.7984 32.2121 25.8898 32.1447 25.9572C32.0773 26.0246 31.9859 26.0625 31.8906 26.0625H31.1719C31.0766 26.0625 30.9852 26.0246 30.9178 25.9572C30.8504 25.8898 30.8125 25.7984 30.8125 25.7031V24.9844ZM27.9375 24.9844C27.9375 24.8891 27.9754 24.7977 28.0428 24.7303C28.1102 24.6629 28.2016 24.625 28.2969 24.625H29.0156C29.1109 24.625 29.2023 24.6629 29.2697 24.7303C29.3371 24.7977 29.375 24.8891 29.375 24.9844V25.7031C29.375 25.7984 29.3371 25.8898 29.2697 25.9572C29.2023 26.0246 29.1109 26.0625 29.0156 26.0625H28.2969C28.2016 26.0625 28.1102 26.0246 28.0428 25.9572C27.9754 25.8898 27.9375 25.7984 27.9375 25.7031V24.9844ZM25.0625 24.9844C25.0625 24.8891 25.1004 24.7977 25.1678 24.7303C25.2352 24.6629 25.3266 24.625 25.4219 24.625H26.1406C26.2359 24.625 26.3273 24.6629 26.3947 24.7303C26.4621 24.7977 26.5 24.8891 26.5 24.9844V25.7031C26.5 25.7984 26.4621 25.8898 26.3947 25.9572C26.3273 26.0246 26.2359 26.0625 26.1406 26.0625H25.4219C25.3266 26.0625 25.2352 26.0246 25.1678 25.9572C25.1004 25.8898 25.0625 25.7984 25.0625 25.7031V24.9844ZM22.1875 24.9844C22.1875 24.8891 22.2254 24.7977 22.2928 24.7303C22.3602 24.6629 22.4516 24.625 22.5469 24.625H23.2656C23.3609 24.625 23.4523 24.6629 23.5197 24.7303C23.5871 24.7977 23.625 24.8891 23.625 24.9844V25.7031C23.625 25.7984 23.5871 25.8898 23.5197 25.9572C23.4523 26.0246 23.3609 26.0625 23.2656 26.0625H22.5469C22.4516 26.0625 22.3602 26.0246 22.2928 25.9572C22.2254 25.8898 22.1875 25.7984 22.1875 25.7031V24.9844ZM17.875 24.9844C17.875 24.8891 17.9129 24.7977 17.9803 24.7303C18.0477 24.6629 18.1391 24.625 18.2344 24.625H20.3906C20.4859 24.625 20.5773 24.6629 20.6447 24.7303C20.7121 24.7977 20.75 24.8891 20.75 24.9844V25.7031C20.75 25.7984 20.7121 25.8898 20.6447 25.9572C20.5773 26.0246 20.4859 26.0625 20.3906 26.0625H18.2344C18.1391 26.0625 18.0477 26.0246 17.9803 25.9572C17.9129 25.8898 17.875 25.7984 17.875 25.7031V24.9844ZM17.875 30.7344C17.875 30.6391 17.9129 30.5477 17.9803 30.4803C18.0477 30.4129 18.1391 30.375 18.2344 30.375H18.9531C19.0484 30.375 19.1398 30.4129 19.2072 30.4803C19.2746 30.5477 19.3125 30.6391 19.3125 30.7344V31.4531C19.3125 31.5484 19.2746 31.6398 19.2072 31.7072C19.1398 31.7746 19.0484 31.8125 18.9531 31.8125H18.2344C18.1391 31.8125 18.0477 31.7746 17.9803 31.7072C17.9129 31.6398 17.875 31.5484 17.875 31.4531V30.7344ZM20.75 30.7344C20.75 30.6391 20.7879 30.5477 20.8553 30.4803C20.9227 30.4129 21.0141 30.375 21.1094 30.375H29.0156C29.1109 30.375 29.2023 30.4129 29.2697 30.4803C29.3371 30.5477 29.375 30.6391 29.375 30.7344V31.4531C29.375 31.5484 29.3371 31.6398 29.2697 31.7072C29.2023 31.7746 29.1109 31.8125 29.0156 31.8125H21.1094C21.0141 31.8125 20.9227 31.7746 20.8553 31.7072C20.7879 31.6398 20.75 31.5484 20.75 31.4531V30.7344Z" fill="#5555FC"/>
</g>
<defs>
<clipPath id="clip0_17_260">
<rect width="23" height="23" fill="white" transform="translate(15 16)"/>
</clipPath>
</defs>
</svg>
