<svg width="52" height="52" viewBox="0 0 52 52" fill="none" xmlns="http://www.w3.org/2000/svg">
<circle cx="26" cy="26" r="25" stroke="#5555FC" stroke-width="2"/>
<path d="M28 22C28.5304 22 29.0391 21.7893 29.4142 21.4142C29.7893 21.0391 30 20.5304 30 20C30 19.4696 29.7893 18.9609 29.4142 18.5858C29.0391 18.2107 28.5304 18 28 18C27.4696 18 26.9609 18.2107 26.5858 18.5858C26.2107 18.9609 26 19.4696 26 20C26 20.5304 26.2107 21.0391 26.5858 21.4142C26.9609 21.7893 27.4696 22 28 22ZM29 29H31C31.7956 29 32.5587 29.3161 33.1213 29.8787C33.6839 30.4413 34 31.2044 34 32V36H18V32C18 31.2044 18.3161 30.4413 18.8787 29.8787C19.4413 29.3161 20.2044 29 21 29H27V23.874C26.0595 23.6283 25.2406 23.0486 24.6962 22.2433C24.1518 21.438 23.9191 20.4621 24.0416 19.4978C24.164 18.5335 24.6333 17.6467 25.3617 17.003C26.0901 16.3594 27.0279 16.0028 28 16C28.9743 15.999 29.9154 16.3537 30.6467 16.9974C31.3781 17.6411 31.8493 18.5295 31.9721 19.496C32.0948 20.4625 31.8606 21.4406 31.3134 22.2467C30.7662 23.0528 29.9436 23.6314 29 23.874V29ZM20 34H32V32C32 31.7348 31.8946 31.4804 31.7071 31.2929C31.5196 31.1054 31.2652 31 31 31H21C20.7348 31 20.4804 31.1054 20.2929 31.2929C20.1054 31.4804 20 31.7348 20 32V34ZM22.5 28H24.5C24.8978 28 25.2794 28.158 25.5607 28.4393C25.842 28.7206 26 29.1022 26 29.5C26 29.8978 25.842 30.2794 25.5607 30.5607C25.2794 30.842 24.8978 31 24.5 31H22.5C22.1022 31 21.7206 30.842 21.4393 30.5607C21.158 30.2794 21 29.8978 21 29.5C21 29.1022 21.158 28.7206 21.4393 28.4393C21.7206 28.158 22.1022 28 22.5 28Z" fill="#5555FC"/>
</svg>
