<svg width="37" height="37" viewBox="0 0 37 37" fill="none" xmlns="http://www.w3.org/2000/svg">
<g clip-path="url(#clip0_17_609)">
<path d="M32.375 11.5625C32.9883 11.5625 33.5765 11.8061 34.0102 12.2398C34.4439 12.6735 34.6875 13.2617 34.6875 13.875V25.4375C34.6875 26.0508 34.4439 26.639 34.0102 27.0727C33.5765 27.5064 32.9883 27.75 32.375 27.75H4.625C4.01169 27.75 3.42349 27.5064 2.98982 27.0727C2.55614 26.639 2.3125 26.0508 2.3125 25.4375V13.875C2.3125 13.2617 2.55614 12.6735 2.98982 12.2398C3.42349 11.8061 4.01169 11.5625 4.625 11.5625H32.375ZM4.625 9.25C3.39837 9.25 2.22199 9.73728 1.35463 10.6046C0.487275 11.472 0 12.6484 0 13.875L0 25.4375C0 26.6641 0.487275 27.8405 1.35463 28.7079C2.22199 29.5752 3.39837 30.0625 4.625 30.0625H32.375C33.6016 30.0625 34.778 29.5752 35.6454 28.7079C36.5127 27.8405 37 26.6641 37 25.4375V13.875C37 12.6484 36.5127 11.472 35.6454 10.6046C34.778 9.73728 33.6016 9.25 32.375 9.25H4.625Z" fill="#4A4ADF"/>
<path d="M30.0625 23.7031C30.0625 23.5498 30.1234 23.4027 30.2318 23.2943C30.3402 23.1859 30.4873 23.125 30.6406 23.125H31.7969C31.9502 23.125 32.0973 23.1859 32.2057 23.2943C32.3141 23.4027 32.375 23.5498 32.375 23.7031V24.8594C32.375 25.0127 32.3141 25.1598 32.2057 25.2682C32.0973 25.3766 31.9502 25.4375 31.7969 25.4375H30.6406C30.4873 25.4375 30.3402 25.3766 30.2318 25.2682C30.1234 25.1598 30.0625 25.0127 30.0625 24.8594V23.7031ZM30.0625 19.0781C30.0625 18.9248 30.1234 18.7777 30.2318 18.6693C30.3402 18.5609 30.4873 18.5 30.6406 18.5H31.7969C31.9502 18.5 32.0973 18.5609 32.2057 18.6693C32.3141 18.7777 32.375 18.9248 32.375 19.0781V20.2344C32.375 20.3877 32.3141 20.5348 32.2057 20.6432C32.0973 20.7516 31.9502 20.8125 31.7969 20.8125H30.6406C30.4873 20.8125 30.3402 20.7516 30.2318 20.6432C30.1234 20.5348 30.0625 20.3877 30.0625 20.2344V19.0781ZM18.5 19.0781C18.5 18.9248 18.5609 18.7777 18.6693 18.6693C18.7777 18.5609 18.9248 18.5 19.0781 18.5H20.2344C20.3877 18.5 20.5348 18.5609 20.6432 18.6693C20.7516 18.7777 20.8125 18.9248 20.8125 19.0781V20.2344C20.8125 20.3877 20.7516 20.5348 20.6432 20.6432C20.5348 20.7516 20.3877 20.8125 20.2344 20.8125H19.0781C18.9248 20.8125 18.7777 20.7516 18.6693 20.6432C18.5609 20.5348 18.5 20.3877 18.5 20.2344V19.0781ZM23.125 19.0781C23.125 18.9248 23.1859 18.7777 23.2943 18.6693C23.4027 18.5609 23.5498 18.5 23.7031 18.5H27.1719C27.3252 18.5 27.4723 18.5609 27.5807 18.6693C27.6891 18.7777 27.75 18.9248 27.75 19.0781V20.2344C27.75 20.3877 27.6891 20.5348 27.5807 20.6432C27.4723 20.7516 27.3252 20.8125 27.1719 20.8125H23.7031C23.5498 20.8125 23.4027 20.7516 23.2943 20.6432C23.1859 20.5348 23.125 20.3877 23.125 20.2344V19.0781ZM25.4375 23.7031C25.4375 23.5498 25.4984 23.4027 25.6068 23.2943C25.7152 23.1859 25.8623 23.125 26.0156 23.125H27.1719C27.3252 23.125 27.4723 23.1859 27.5807 23.2943C27.6891 23.4027 27.75 23.5498 27.75 23.7031V24.8594C27.75 25.0127 27.6891 25.1598 27.5807 25.2682C27.4723 25.3766 27.3252 25.4375 27.1719 25.4375H26.0156C25.8623 25.4375 25.7152 25.3766 25.6068 25.2682C25.4984 25.1598 25.4375 25.0127 25.4375 24.8594V23.7031ZM13.875 19.0781C13.875 18.9248 13.9359 18.7777 14.0443 18.6693C14.1527 18.5609 14.2998 18.5 14.4531 18.5H15.6094C15.7627 18.5 15.9098 18.5609 16.0182 18.6693C16.1266 18.7777 16.1875 18.9248 16.1875 19.0781V20.2344C16.1875 20.3877 16.1266 20.5348 16.0182 20.6432C15.9098 20.7516 15.7627 20.8125 15.6094 20.8125H14.4531C14.2998 20.8125 14.1527 20.7516 14.0443 20.6432C13.9359 20.5348 13.875 20.3877 13.875 20.2344V19.0781ZM9.25 19.0781C9.25 18.9248 9.31091 18.7777 9.41933 18.6693C9.52775 18.5609 9.6748 18.5 9.82812 18.5H10.9844C11.1377 18.5 11.2848 18.5609 11.3932 18.6693C11.5016 18.7777 11.5625 18.9248 11.5625 19.0781V20.2344C11.5625 20.3877 11.5016 20.5348 11.3932 20.6432C11.2848 20.7516 11.1377 20.8125 10.9844 20.8125H9.82812C9.6748 20.8125 9.52775 20.7516 9.41933 20.6432C9.31091 20.5348 9.25 20.3877 9.25 20.2344V19.0781ZM4.625 19.0781C4.625 18.9248 4.68591 18.7777 4.79433 18.6693C4.90275 18.5609 5.0498 18.5 5.20312 18.5H6.35938C6.5127 18.5 6.65975 18.5609 6.76817 18.6693C6.87659 18.7777 6.9375 18.9248 6.9375 19.0781V20.2344C6.9375 20.3877 6.87659 20.5348 6.76817 20.6432C6.65975 20.7516 6.5127 20.8125 6.35938 20.8125H5.20312C5.0498 20.8125 4.90275 20.7516 4.79433 20.6432C4.68591 20.5348 4.625 20.3877 4.625 20.2344V19.0781ZM30.0625 14.4531C30.0625 14.2998 30.1234 14.1527 30.2318 14.0443C30.3402 13.9359 30.4873 13.875 30.6406 13.875H31.7969C31.9502 13.875 32.0973 13.9359 32.2057 14.0443C32.3141 14.1527 32.375 14.2998 32.375 14.4531V15.6094C32.375 15.7627 32.3141 15.9098 32.2057 16.0182C32.0973 16.1266 31.9502 16.1875 31.7969 16.1875H30.6406C30.4873 16.1875 30.3402 16.1266 30.2318 16.0182C30.1234 15.9098 30.0625 15.7627 30.0625 15.6094V14.4531ZM25.4375 14.4531C25.4375 14.2998 25.4984 14.1527 25.6068 14.0443C25.7152 13.9359 25.8623 13.875 26.0156 13.875H27.1719C27.3252 13.875 27.4723 13.9359 27.5807 14.0443C27.6891 14.1527 27.75 14.2998 27.75 14.4531V15.6094C27.75 15.7627 27.6891 15.9098 27.5807 16.0182C27.4723 16.1266 27.3252 16.1875 27.1719 16.1875H26.0156C25.8623 16.1875 25.7152 16.1266 25.6068 16.0182C25.4984 15.9098 25.4375 15.7627 25.4375 15.6094V14.4531ZM20.8125 14.4531C20.8125 14.2998 20.8734 14.1527 20.9818 14.0443C21.0902 13.9359 21.2373 13.875 21.3906 13.875H22.5469C22.7002 13.875 22.8473 13.9359 22.9557 14.0443C23.0641 14.1527 23.125 14.2998 23.125 14.4531V15.6094C23.125 15.7627 23.0641 15.9098 22.9557 16.0182C22.8473 16.1266 22.7002 16.1875 22.5469 16.1875H21.3906C21.2373 16.1875 21.0902 16.1266 20.9818 16.0182C20.8734 15.9098 20.8125 15.7627 20.8125 15.6094V14.4531ZM16.1875 14.4531C16.1875 14.2998 16.2484 14.1527 16.3568 14.0443C16.4652 13.9359 16.6123 13.875 16.7656 13.875H17.9219C18.0752 13.875 18.2223 13.9359 18.3307 14.0443C18.4391 14.1527 18.5 14.2998 18.5 14.4531V15.6094C18.5 15.7627 18.4391 15.9098 18.3307 16.0182C18.2223 16.1266 18.0752 16.1875 17.9219 16.1875H16.7656C16.6123 16.1875 16.4652 16.1266 16.3568 16.0182C16.2484 15.9098 16.1875 15.7627 16.1875 15.6094V14.4531ZM11.5625 14.4531C11.5625 14.2998 11.6234 14.1527 11.7318 14.0443C11.8402 13.9359 11.9873 13.875 12.1406 13.875H13.2969C13.4502 13.875 13.5973 13.9359 13.7057 14.0443C13.8141 14.1527 13.875 14.2998 13.875 14.4531V15.6094C13.875 15.7627 13.8141 15.9098 13.7057 16.0182C13.5973 16.1266 13.4502 16.1875 13.2969 16.1875H12.1406C11.9873 16.1875 11.8402 16.1266 11.7318 16.0182C11.6234 15.9098 11.5625 15.7627 11.5625 15.6094V14.4531ZM4.625 14.4531C4.625 14.2998 4.68591 14.1527 4.79433 14.0443C4.90275 13.9359 5.0498 13.875 5.20312 13.875H8.67188C8.8252 13.875 8.97225 13.9359 9.08067 14.0443C9.18909 14.1527 9.25 14.2998 9.25 14.4531V15.6094C9.25 15.7627 9.18909 15.9098 9.08067 16.0182C8.97225 16.1266 8.8252 16.1875 8.67188 16.1875H5.20312C5.0498 16.1875 4.90275 16.1266 4.79433 16.0182C4.68591 15.9098 4.625 15.7627 4.625 15.6094V14.4531ZM4.625 23.7031C4.625 23.5498 4.68591 23.4027 4.79433 23.2943C4.90275 23.1859 5.0498 23.125 5.20312 23.125H6.35938C6.5127 23.125 6.65975 23.1859 6.76817 23.2943C6.87659 23.4027 6.9375 23.5498 6.9375 23.7031V24.8594C6.9375 25.0127 6.87659 25.1598 6.76817 25.2682C6.65975 25.3766 6.5127 25.4375 6.35938 25.4375H5.20312C5.0498 25.4375 4.90275 25.3766 4.79433 25.2682C4.68591 25.1598 4.625 25.0127 4.625 24.8594V23.7031ZM9.25 23.7031C9.25 23.5498 9.31091 23.4027 9.41933 23.2943C9.52775 23.1859 9.6748 23.125 9.82812 23.125H22.5469C22.7002 23.125 22.8473 23.1859 22.9557 23.2943C23.0641 23.4027 23.125 23.5498 23.125 23.7031V24.8594C23.125 25.0127 23.0641 25.1598 22.9557 25.2682C22.8473 25.3766 22.7002 25.4375 22.5469 25.4375H9.82812C9.6748 25.4375 9.52775 25.3766 9.41933 25.2682C9.31091 25.1598 9.25 25.0127 9.25 24.8594V23.7031Z" fill="#4A4ADF"/>
</g>
<defs>
<clipPath id="clip0_17_609">
<rect width="37" height="37" fill="white"/>
</clipPath>
</defs>
</svg>
