<svg width="35" height="35" viewBox="0 0 35 35" fill="none" xmlns="http://www.w3.org/2000/svg">
<path d="M24.3873 20.5044C24.0147 20.313 22.1588 19.4038 21.8135 19.2808C21.4683 19.1509 21.2154 19.0894 20.9659 19.4722C20.713 19.8516 19.9952 20.6958 19.7696 20.9521C19.5509 21.2051 19.3287 21.2358 18.9561 21.0479C16.7413 19.9404 15.2886 19.0723 13.8292 16.5669C13.4429 15.9004 14.2154 15.9482 14.9366 14.5093C15.0596 14.2563 14.9981 14.041 14.9024 13.8496C14.8067 13.6582 14.0548 11.8057 13.7403 11.0503C13.4361 10.3154 13.1217 10.418 12.8926 10.4043C12.6739 10.3906 12.4244 10.3906 12.1715 10.3906C11.9185 10.3906 11.5118 10.4863 11.1666 10.8589C10.8214 11.2383 9.84724 12.1509 9.84724 14.0034C9.84724 15.856 11.1973 17.6504 11.3819 17.9033C11.5733 18.1562 14.0377 21.957 17.8214 23.5942C20.2139 24.6265 21.1505 24.7153 22.3467 24.5376C23.0748 24.4282 24.5753 23.6284 24.8863 22.7432C25.1973 21.8613 25.1973 21.106 25.1051 20.9487C25.0128 20.7813 24.7598 20.6855 24.3873 20.5044Z" fill="white"/>
<path d="M31.6226 11.5664C30.8502 9.73096 29.7428 8.0835 28.3311 6.66846C26.9195 5.25684 25.2721 4.146 23.4332 3.37695C21.5533 2.5874 19.5572 2.1875 17.4996 2.1875H17.4312C15.36 2.19775 13.3536 2.60791 11.4669 3.41455C9.64511 4.19385 8.01132 5.30127 6.61337 6.71289C5.21542 8.12451 4.11825 9.76514 3.35946 11.5938C2.57333 13.4873 2.17684 15.5005 2.1871 17.5718C2.19735 19.9438 2.76474 22.2988 3.82772 24.4043V29.5996C3.82772 30.4678 4.53183 31.1719 5.39999 31.1719H10.5987C12.7042 32.2349 15.0592 32.8022 17.4312 32.8125H17.503C19.5504 32.8125 21.5362 32.416 23.4058 31.6401C25.2345 30.8779 26.8785 29.7842 28.2867 28.3862C29.6983 26.9883 30.8092 25.3545 31.5851 23.5327C32.3917 21.646 32.8018 19.6396 32.8121 17.5684C32.8224 15.4868 32.419 13.4668 31.6226 11.5664ZM26.4581 26.5371C24.0621 28.9092 20.8834 30.2148 17.4996 30.2148H17.4415C15.3805 30.2046 13.3331 29.6919 11.525 28.728L11.2379 28.5742H6.42538V23.7617L6.27157 23.4746C5.3077 21.6665 4.79501 19.6191 4.78476 17.5581C4.77108 14.1504 6.07333 10.9512 8.46249 8.5415C10.8482 6.13184 14.0372 4.79883 17.4449 4.78516H17.503C19.212 4.78516 20.8697 5.1167 22.4317 5.77295C23.9561 6.41211 25.3233 7.33154 26.4991 8.50732C27.6715 9.67969 28.5943 11.0503 29.2335 12.5747C29.8966 14.1538 30.2281 15.8286 30.2213 17.5581C30.2008 20.9624 28.8643 24.1514 26.4581 26.5371Z" fill="white"/>
</svg>
