<svg width="53" height="52" viewBox="0 0 53 52" fill="none" xmlns="http://www.w3.org/2000/svg">
<path d="M52 26C52 39.7892 40.6013 51 26.5 51C12.3987 51 1 39.7892 1 26C1 12.2108 12.3987 1 26.5 1C40.6013 1 52 12.2108 52 26Z" stroke="#5555FC" stroke-width="2"/>
<path d="M39.5876 24.4402L32.5804 21.9217L29.6514 18.2442C29.3968 17.9328 29.0759 17.682 28.7123 17.51C28.3486 17.3381 27.9512 17.2493 27.5489 17.25H20.3026C19.8594 17.2499 19.4229 17.3581 19.0311 17.5654C18.6394 17.7726 18.3043 18.0725 18.0551 18.439L15.5973 22.0486C15.0854 22.7998 14.8119 23.6879 14.8125 24.597V31.75C14.8125 31.9904 14.908 32.2209 15.0779 32.3908C15.2479 32.5608 15.4784 32.6563 15.7188 32.6563H17.6599C17.8571 33.434 18.3079 34.1239 18.9412 34.6166C19.5744 35.1094 20.3539 35.3769 21.1563 35.3769C21.9586 35.3769 22.7381 35.1094 23.3713 34.6166C24.0046 34.1239 24.4554 33.434 24.6526 32.6563H30.3474C30.5446 33.434 30.9954 34.1239 31.6287 34.6166C32.2619 35.1094 33.0414 35.3769 33.8438 35.3769C34.6461 35.3769 35.4256 35.1094 36.0588 34.6166C36.6921 34.1239 37.1429 33.434 37.3401 32.6563H39.2813C39.5216 32.6563 39.7521 32.5608 39.9221 32.3908C40.092 32.2209 40.1875 31.9904 40.1875 31.75V25.293C40.1875 25.1064 40.1298 24.9243 40.0225 24.7717C39.9151 24.619 39.7632 24.5033 39.5876 24.4402ZM21.1563 33.5625C20.7978 33.5625 20.4473 33.4562 20.1493 33.257C19.8512 33.0579 19.6189 32.7748 19.4817 32.4436C19.3445 32.1124 19.3086 31.748 19.3786 31.3964C19.4485 31.0448 19.6211 30.7219 19.8746 30.4684C20.1281 30.2149 20.4511 30.0423 20.8026 29.9723C21.1542 29.9024 21.5187 29.9383 21.8499 30.0755C22.1811 30.2127 22.4641 30.445 22.6633 30.743C22.8624 31.0411 22.9688 31.3915 22.9688 31.75C22.968 32.2305 22.7768 32.6911 22.4371 33.0308C22.0973 33.3706 21.6367 33.5618 21.1563 33.5625ZM33.8438 33.5625C33.4853 33.5625 33.1348 33.4562 32.8368 33.257C32.5387 33.0579 32.3064 32.7748 32.1692 32.4436C32.032 32.1124 31.9961 31.748 32.0661 31.3964C32.136 31.0448 32.3086 30.7219 32.5621 30.4684C32.8156 30.2149 33.1386 30.0423 33.4902 29.9723C33.8417 29.9024 34.2062 29.9383 34.5374 30.0755C34.8686 30.2127 35.1516 30.445 35.3508 30.743C35.5499 31.0411 35.6563 31.3915 35.6563 31.75C35.6558 32.2306 35.4647 32.6913 35.1249 33.0311C34.785 33.3709 34.3243 33.562 33.8438 33.5625ZM38.375 30.8438H37.3401C37.1429 30.066 36.6921 29.3761 36.0588 28.8834C35.4256 28.3906 34.6461 28.1231 33.8438 28.1231C33.0414 28.1231 32.2619 28.3906 31.6287 28.8834C30.9954 29.3761 30.5446 30.066 30.3474 30.8438H24.6526C24.4554 30.066 24.0046 29.3761 23.3713 28.8834C22.7381 28.3906 21.9586 28.1231 21.1563 28.1231C20.3539 28.1231 19.5744 28.3906 18.9412 28.8834C18.3079 29.3761 17.8571 30.066 17.6599 30.8438H16.625V24.597C16.6249 24.0513 16.7891 23.5182 17.0963 23.0672L19.5531 19.4594C19.6362 19.3372 19.7479 19.2371 19.8785 19.1679C20.0092 19.0987 20.1547 19.0625 20.3026 19.0625H27.5489C27.6808 19.062 27.8112 19.0905 27.9308 19.1459C28.0505 19.2013 28.1565 19.2824 28.2413 19.3833L31.3226 23.2521C31.4274 23.3836 31.5667 23.4834 31.7249 23.5403L38.375 25.9301V30.8438Z" fill="#5555FC"/>
</svg>
