<svg width="53" height="54" viewBox="0 0 53 54" fill="none" xmlns="http://www.w3.org/2000/svg">
<circle cx="26.5" cy="26.532" r="25.5" stroke="#5555FC" stroke-width="2"/>
<g clip-path="url(#clip0_17_268)">
<path d="M30.125 17.375C30.4897 17.375 30.8394 17.5199 31.0973 17.7777C31.3551 18.0356 31.5 18.3853 31.5 18.75V35.25C31.5 35.6147 31.3551 35.9644 31.0973 36.2223C30.8394 36.4801 30.4897 36.625 30.125 36.625H21.875C21.5103 36.625 21.1606 36.4801 20.9027 36.2223C20.6449 35.9644 20.5 35.6147 20.5 35.25V18.75C20.5 18.3853 20.6449 18.0356 20.9027 17.7777C21.1606 17.5199 21.5103 17.375 21.875 17.375H30.125ZM21.875 16C21.1457 16 20.4462 16.2897 19.9305 16.8055C19.4147 17.3212 19.125 18.0207 19.125 18.75V35.25C19.125 35.9793 19.4147 36.6788 19.9305 37.1945C20.4462 37.7103 21.1457 38 21.875 38H30.125C30.8543 38 31.5538 37.7103 32.0695 37.1945C32.5853 36.6788 32.875 35.9793 32.875 35.25V18.75C32.875 18.0207 32.5853 17.3212 32.0695 16.8055C31.5538 16.2897 30.8543 16 30.125 16H21.875Z" fill="#5555FC"/>
<path d="M29.6 18.25C29.9183 18.25 30.2235 18.3817 30.4485 18.6161C30.6736 18.8505 30.8 19.1685 30.8 19.5V34.5C30.8 34.8315 30.6736 35.1495 30.4485 35.3839C30.2235 35.6183 29.9183 35.75 29.6 35.75H22.4C22.0817 35.75 21.7765 35.6183 21.5515 35.3839C21.3264 35.1495 21.2 34.8315 21.2 34.5V19.5C21.2 19.1685 21.3264 18.8505 21.5515 18.6161C21.7765 18.3817 22.0817 18.25 22.4 18.25H29.6ZM22.4 17C21.7635 17 21.153 17.2634 20.7029 17.7322C20.2529 18.2011 20 18.837 20 19.5V34.5C20 35.163 20.2529 35.7989 20.7029 36.2678C21.153 36.7366 21.7635 37 22.4 37H29.6C30.2365 37 30.847 36.7366 31.2971 36.2678C31.7471 35.7989 32 35.163 32 34.5V19.5C32 18.837 31.7471 18.2011 31.2971 17.7322C30.847 17.2634 30.2365 17 29.6 17H22.4Z" fill="#5555FC"/>
<path d="M25.9375 33.625C26.2524 33.625 26.5545 33.4999 26.7772 33.2772C26.9999 33.0545 27.125 32.7524 27.125 32.4375C27.125 32.1226 26.9999 31.8205 26.7772 31.5978C26.5545 31.3751 26.2524 31.25 25.9375 31.25C25.6226 31.25 25.3205 31.3751 25.0978 31.5978C24.8751 31.8205 24.75 32.1226 24.75 32.4375C24.75 32.7524 24.8751 33.0545 25.0978 33.2772C25.3205 33.4999 25.6226 33.625 25.9375 33.625Z" fill="#5555FC"/>
</g>
<defs>
<clipPath id="clip0_17_268">
<rect width="22" height="22" fill="white" transform="translate(15 16)"/>
</clipPath>
</defs>
</svg>
