<svg width="15" height="15" viewBox="0 0 15 15" fill="none" xmlns="http://www.w3.org/2000/svg">
<g clip-path="url(#clip0_17_94)">
<path d="M6.59617 3.90014L4.48179 1.45952C4.23804 1.17827 3.79117 1.17952 3.50804 1.46327L1.76929 3.20514C1.25179 3.72327 1.10367 4.49264 1.40304 5.10952C3.19155 8.81262 6.17807 11.8033 9.87867 13.597C10.4949 13.8964 11.2637 13.7483 11.7812 13.2301L13.5362 11.472C13.8205 11.1876 13.8212 10.7383 13.5374 10.4945L11.0874 8.39139C10.8312 8.17139 10.433 8.20014 10.1762 8.45764L9.32367 9.31139C9.28002 9.35713 9.22257 9.38728 9.16014 9.39722C9.0977 9.40715 9.03373 9.39632 8.97804 9.36639C7.58457 8.56395 6.42866 7.40653 5.62804 6.01202C5.59806 5.95624 5.5872 5.89216 5.59714 5.82961C5.60707 5.76707 5.63725 5.70951 5.68304 5.66577L6.53304 4.81514C6.79054 4.55639 6.81867 4.15639 6.59617 3.89952V3.90014Z" stroke="#5555FA" stroke-width="2" stroke-linecap="round" stroke-linejoin="round"/>
</g>
<defs>
<clipPath id="clip0_17_94">
<rect width="15" height="15" fill="white"/>
</clipPath>
</defs>
</svg>
