<svg width="778" height="110" viewBox="0 0 778 110" fill="none" xmlns="http://www.w3.org/2000/svg">
<path d="M364.877 82.4938C279.396 76.3196 130.757 51.5174 220.053 1.70285" stroke="url(#paint0_linear_17_172)" stroke-width="2"/>
<path d="M417.096 82.4938C502.577 76.3196 651.215 51.5174 561.919 1.70285" stroke="url(#paint1_linear_17_172)" stroke-width="2"/>
<path d="M777 66.7159C721.996 97.7623 639.98 77.0636 556 45.032" stroke="url(#paint2_linear_17_172)" stroke-opacity="0.24" stroke-width="4"/>
<path d="M1 66.7159C56.2533 97.7623 138.64 77.0636 223 45.032" stroke="url(#paint3_linear_17_172)" stroke-opacity="0.24" stroke-width="4"/>
<circle cx="390.985" cy="82.9867" r="25.1093" stroke="#5555FC" stroke-width="2"/>
<path d="M384.25 79.8604C384.25 79.5692 384.486 79.3333 384.777 79.3333H396.223C396.514 79.3333 396.75 79.5692 396.75 79.8604V87.6666C396.75 91.1182 393.952 93.9166 390.5 93.9166C387.048 93.9166 384.25 91.1182 384.25 87.6666V79.8604Z" stroke="#5555FC" stroke-width="2" stroke-linecap="round" stroke-linejoin="round"/>
<path d="M385.812 73.0833H395.187V79.3333H385.812V73.0833Z" stroke="#5555FC" stroke-width="2" stroke-linejoin="round"/>
<path d="M388.938 75.6874V76.7291" stroke="#5555FC" stroke-width="2" stroke-linecap="round" stroke-linejoin="round"/>
<path d="M392.062 75.6874V76.7291" stroke="#5555FC" stroke-width="2" stroke-linecap="round" stroke-linejoin="round"/>
<path d="M384.25 87.6666H396.75" stroke="#5555FC" stroke-width="2" stroke-linecap="round" stroke-linejoin="round"/>
<defs>
<linearGradient id="paint0_linear_17_172" x1="342.902" y1="82.4938" x2="289.72" y2="-5.01443" gradientUnits="userSpaceOnUse">
<stop stop-color="#4747D7" stop-opacity="0"/>
<stop offset="1" stop-color="#4747D7"/>
</linearGradient>
<linearGradient id="paint1_linear_17_172" x1="439.071" y1="82.4938" x2="492.253" y2="-5.01443" gradientUnits="userSpaceOnUse">
<stop stop-color="#4747D7" stop-opacity="0"/>
<stop offset="1" stop-color="#4747D7"/>
</linearGradient>
<linearGradient id="paint2_linear_17_172" x1="765.704" y1="63.7587" x2="565.326" y2="51.0334" gradientUnits="userSpaceOnUse">
<stop stop-color="#161616" stop-opacity="0"/>
<stop offset="0.508333" stop-color="#161616"/>
<stop offset="1" stop-color="#161616" stop-opacity="0"/>
</linearGradient>
<linearGradient id="paint3_linear_17_172" x1="12.3467" y1="63.7587" x2="213.625" y2="50.9184" gradientUnits="userSpaceOnUse">
<stop stop-color="#161616" stop-opacity="0"/>
<stop offset="0.508333" stop-color="#161616"/>
<stop offset="1" stop-color="#161616" stop-opacity="0"/>
</linearGradient>
</defs>
</svg>
