<svg width="778" height="107" viewBox="0 0 778 107" fill="none" xmlns="http://www.w3.org/2000/svg">
<path d="M364 25.032C278.231 31.2222 129.093 56.0886 218.689 106.032" stroke="url(#paint0_linear_2364_2)" stroke-width="2"/>
<path d="M416 25.032C501.769 31.2222 650.907 56.0886 561.311 106.032" stroke="url(#paint1_linear_2364_2)" stroke-width="2"/>
<path d="M1 28.9341C56.2533 -1.27321 138.64 18.866 223 50.032" stroke="url(#paint2_linear_2364_2)" stroke-opacity="0.2" stroke-width="4"/>
<path d="M777 28.9341C721.996 -1.27321 639.98 18.866 556 50.032" stroke="url(#paint3_linear_2364_2)" stroke-opacity="0.2" stroke-width="4"/>
<circle cx="390" cy="26" r="25" stroke="#5555FC" stroke-width="2"/>
<path d="M392 21C392.53 21 393.039 20.7893 393.414 20.4142C393.789 20.0391 394 19.5304 394 19C394 18.4696 393.789 17.9609 393.414 17.5858C393.039 17.2107 392.53 17 392 17C391.47 17 390.961 17.2107 390.586 17.5858C390.211 17.9609 390 18.4696 390 19C390 19.5304 390.211 20.0391 390.586 20.4142C390.961 20.7893 391.47 21 392 21ZM393 28H395C395.796 28 396.559 28.3161 397.121 28.8787C397.684 29.4413 398 30.2044 398 31V35H382V31C382 30.2044 382.316 29.4413 382.879 28.8787C383.441 28.3161 384.204 28 385 28H391V22.874C390.06 22.6283 389.241 22.0486 388.696 21.2433C388.152 20.438 387.919 19.4621 388.042 18.4978C388.164 17.5335 388.633 16.6467 389.362 16.003C390.09 15.3594 391.028 15.0028 392 15C392.974 14.999 393.915 15.3537 394.647 15.9974C395.378 16.6411 395.849 17.5295 395.972 18.496C396.095 19.4625 395.861 20.4406 395.313 21.2467C394.766 22.0528 393.944 22.6314 393 22.874V28ZM384 33H396V31C396 30.7348 395.895 30.4804 395.707 30.2929C395.52 30.1054 395.265 30 395 30H385C384.735 30 384.48 30.1054 384.293 30.2929C384.105 30.4804 384 30.7348 384 31V33ZM386.5 27H388.5C388.898 27 389.279 27.158 389.561 27.4393C389.842 27.7206 390 28.1022 390 28.5C390 28.8978 389.842 29.2794 389.561 29.5607C389.279 29.842 388.898 30 388.5 30H386.5C386.102 30 385.721 29.842 385.439 29.5607C385.158 29.2794 385 28.8978 385 28.5C385 28.1022 385.158 27.7206 385.439 27.4393C385.721 27.158 386.102 27 386.5 27Z" fill="#5555FC"/>
<defs>
<linearGradient id="paint0_linear_2364_2" x1="341.951" y1="25.032" x2="288.651" y2="112.803" gradientUnits="userSpaceOnUse">
<stop stop-color="#4747D7" stop-opacity="0"/>
<stop offset="1" stop-color="#4747D7"/>
</linearGradient>
<linearGradient id="paint1_linear_2364_2" x1="438.049" y1="25.032" x2="491.349" y2="112.803" gradientUnits="userSpaceOnUse">
<stop stop-color="#4747D7" stop-opacity="0"/>
<stop offset="1" stop-color="#4747D7"/>
</linearGradient>
<linearGradient id="paint2_linear_2364_2" x1="12.3467" y1="31.8114" x2="213.579" y2="45.0053" gradientUnits="userSpaceOnUse">
<stop stop-color="#161616" stop-opacity="0"/>
<stop offset="0.508333" stop-color="#161616"/>
<stop offset="1" stop-color="#161616" stop-opacity="0"/>
</linearGradient>
<linearGradient id="paint3_linear_2364_2" x1="765.704" y1="31.8114" x2="565.371" y2="44.8872" gradientUnits="userSpaceOnUse">
<stop stop-color="#161616" stop-opacity="0"/>
<stop offset="0.508333" stop-color="#161616"/>
<stop offset="1" stop-color="#161616" stop-opacity="0"/>
</linearGradient>
</defs>
</svg>
