<svg width="53" height="52" viewBox="0 0 53 52" fill="none" xmlns="http://www.w3.org/2000/svg">
<path d="M52 26C52 39.7892 40.6013 51 26.5 51C12.3987 51 1 39.7892 1 26C1 12.2108 12.3987 1 26.5 1C40.6013 1 52 12.2108 52 26Z" stroke="#5555FC" stroke-width="2"/>
<g clip-path="url(#clip0_2364_3)">
<path d="M24.5312 17.3125V19.9375L23.2188 20.5938L21.25 18.625L18.625 21.25L20.5938 23.2188L19.9375 24.5312H17.3125V28.4688H19.9375L20.5938 29.7812L18.625 31.75L21.25 34.375L23.2188 32.4062L24.5312 33.0625V35.6875H28.4688V33.0625L29.7812 32.4062L31.75 34.375L34.375 31.75L32.4062 29.7812L33.0625 28.4688H35.6875V24.5312H33.0625L32.4062 23.2188L34.375 21.25L31.75 18.625L29.7812 20.5938L28.4688 19.9375V17.3125H24.5312Z" stroke="#5555FC" stroke-width="2" stroke-linecap="round" stroke-linejoin="round"/>
<path d="M26.5 29.125C27.9497 29.125 29.125 27.9497 29.125 26.5C29.125 25.0503 27.9497 23.875 26.5 23.875C25.0503 23.875 23.875 25.0503 23.875 26.5C23.875 27.9497 25.0503 29.125 26.5 29.125Z" stroke="#5555FC" stroke-width="2" stroke-linecap="round" stroke-linejoin="round"/>
</g>
<defs>
<clipPath id="clip0_2364_3">
<rect width="21" height="21" fill="white" transform="translate(16 16)"/>
</clipPath>
</defs>
</svg>
